:FULLY-SPECIFIED
:FORCE-ALL-JOINTS-BE-3DOF
:DEGREES
815
root 2.15339 16.5298 23.2764 4.05052 -0.656265 -7.59086
lfemur -35.1582 0.313339 2.86137
ltibia 18.9021 -0 0
lfoot -8.34234 16.081 -0.0333176
ltoes 19.9625 -0 0
rfemur 5.52675 4.86937 21.7244
rtibia 20.3719 -0 0
rfoot -21.0489 -13.7792 -0.0305488
rtoes -27.0726 0 0
lowerback -0.10376 6.88638 5.54328
upperback -0.417464 9.18405 -0.169297
thorax 0.525612 4.5998 -3.09822
lowerneck -5.43495 -1.69692 3.19416
upperneck 0.375921 -2.49142 1.52136
head 1.0119 -1.20586 -0.119634
lclavicle 1.0948e-15 -3.74518e-16 -9.79378e-34
lhumerus -53.7022 -6.16643 90.4387
lradius 52.937 -0 0
lwrist 17.7308 0 0
lhand -7.18852 4.92216 0.0757215
lfingers 7.12502 -0 0
lthumb 18.6871 34.0126 0.066949
rclavicle 1.0948e-15 -3.74518e-16 -9.79378e-34
rhumerus -29.3856 45.2053 -107.952
rradius 67.6321 -0 0
rwrist -2.22845 0 0
rhand -7.5005 -21.9352 -0.0161573
rfingers 7.12502 -0 0
rthumb 18.3869 -51.0442 -0.00831076
816
root 2.16295 16.5329 23.3614 4.1729 -2.06919 -7.62117
lfemur -35.1653 0.075605 3.16467
ltibia 18.3333 -0 0
lfoot -8.09693 15.9992 -0.0239771
ltoes 20.0311 -0 0
rfemur 5.90923 5.36206 21.8224
rtibia 19.8008 -0 0
rfoot -21.1033 -13.4419 -0.0219832
rtoes -27.1065 0 0
lowerback -0.124024 6.92737 5.65936
upperback -0.406951 9.23713 -0.103076
thorax 0.557533 4.62629 -3.08987
lowerneck -5.43374 -1.60756 3.26383
upperneck 0.42382 -2.377 1.45931
head 1.02235 -1.14985 -0.148804
lclavicle 1.00699e-15 -3.81273e-16 -7.04866e-34
lhumerus -53.6688 -6.06633 90.362
lradius 52.6179 -0 0
lwrist 17.8175 0 0
lhand -6.93493 5.10177 0.0544912
lfingers 7.12502 -0 0
lthumb 18.9317 34.1774 0.0481789
rclavicle 1.00699e-15 -3.81273e-16 -7.04866e-34
rhumerus -29.3661 45.152 -107.872
rradius 67.407 -0 0
rwrist -2.37548 0 0
rhand -7.20466 -21.9681 -0.0116273
rfingers 7.12502 -0 0
rthumb 18.6721 -51.0617 -0.00598076
817
root 2.17098 16.5356 23.433 4.27652 -3.25763 -7.64904
lfemur -35.1722 -0.12424 3.41969
ltibia 17.8549 -0 0
lfoot -7.89051 15.9304 -0.0158487
ltoes 20.0887 -0 0
rfemur 6.23178 5.77589 21.9074
rtibia 19.3205 -0 0
rfoot -21.149 -13.1581 -0.0145301
rtoes -27.135 0 0
lowerback -0.141005 6.96188 5.75701
upperback -0.398059 9.28176 -0.0473597
thorax 0.584387 4.64857 -3.08285
lowerneck -5.43263 -1.53239 3.32244
upperneck 0.464011 -2.28072 1.40719
head 1.03113 -1.10272 -0.173333
lclavicle 9.33121e-16 -3.86955e-16 -4.6594e-34
lhumerus -53.6408 -5.9821 90.2975
lradius 52.3495 -0 0
lwrist 17.8905 0 0
lhand -6.72167 5.25279 0.0360173
lfingers 7.12502 -0 0
lthumb 19.1373 34.316 0.0318452
rclavicle 9.33121e-16 -3.86955e-16 -4.6594e-34
rhumerus -29.3499 45.1072 -107.806
rradius 67.2176 -0 0
rwrist -2.49915 0 0
rhand -6.95581 -21.9957 -0.00768543
rfingers 7.12502 -0 0
rthumb 18.9121 -51.0765 -0.00395318
818
root 2.17741 16.5377 23.4901 4.35983 -4.20715 -7.67288
lfemur -35.1784 -0.283898 3.62347
ltibia 17.4725 -0 0
lfoot -7.72559 15.8754 -0.0091759
ltoes 20.1348 -0 0
rfemur 6.49018 6.10627 21.977
rtibia 18.9366 -0 0
rfoot -21.1855 -12.9314 -0.00841215
rtoes -27.1578 0 0
lowerback -0.154532 6.98947 5.83503
upperback -0.390922 9.31741 -0.00283439
thorax 0.605845 4.66637 -3.07722
lowerneck -5.43169 -1.47233 3.36927
upperneck 0.496059 -2.20377 1.3656
head 1.03812 -1.06507 -0.192925
lclavicle 8.74104e-16 -3.91495e-16 -2.69778e-34
lhumerus -53.6185 -5.91477 90.2461
lradius 52.135 -0 0
lwrist 17.9487 0 0
lhand -6.55131 5.3734 0.0208524
lfingers 7.12502 -0 0
lthumb 19.3016 34.4267 0.0184371
rclavicle 8.74104e-16 -3.91495e-16 -2.69778e-34
rhumerus -29.337 45.0714 -107.753
rradius 67.0663 -0 0
rwrist -2.59797 0 0
rhand -6.75697 -22.0178 -0.00444955
rfingers 7.12502 -0 0
rthumb 19.1038 -51.0882 -0.00228874
819
root 2.18212 16.5393 23.532 4.42123 -4.90331 -7.69126
lfemur -35.1833 -0.400947 3.77291
ltibia 17.1923 -0 0
lfoot -7.60467 15.8351 -0.00418302
ltoes 20.1685 -0 0
rfemur 6.6799 6.34818 22.0291
rtibia 18.6552 -0 0
rfoot -21.2122 -12.7651 -0.00383475
rtoes -27.1745 0 0
lowerback -0.164425 7.00971 5.89222
upperback -0.385671 9.34354 0.0298147
thorax 0.621579 4.67942 -3.0731
lowerneck -5.43097 -1.4283 3.4036
upperneck 0.519519 -2.14734 1.33513
head 1.04324 -1.03746 -0.207286
lclavicle 8.30834e-16 -3.94823e-16 -1.22988e-34
lhumerus -53.6022 -5.8654 90.2084
lradius 51.9777 -0 0
lwrist 17.9915 0 0
lhand -6.42642 5.46181 0.00950586
lfingers 7.12502 -0 0
lthumb 19.4221 34.5078 0.00840485
rclavicle 8.30834e-16 -3.94823e-16 -1.22988e-34
rhumerus -29.3276 45.0451 -107.714
rradius 66.9553 -0 0
rwrist -2.67042 0 0
rhand -6.61119 -22.034 -0.0020284
rfingers 7.12502 -0 0
rthumb 19.2444 -51.0969 -0.00104336
820
root 2.18501 16.5403 23.5578 4.45915 -5.33157 -7.70295
lfemur -35.1865 -0.472958 3.86486
ltibia 17.0199 -0 0
lfoot -7.53028 15.8103 -0.00106883
ltoes 20.1893 -0 0
rfemur 6.7968 6.49696 22.0615
rtibia 18.4821 -0 0
rfoot -21.2287 -12.6629 -0.000979825
rtoes -27.1848 0 0
lowerback -0.170502 7.02217 5.92742
upperback -0.382433 9.35962 0.0499038
thorax 0.631259 4.68744 -3.07056
lowerneck -5.43052 -1.40121 3.42472
upperneck 0.533937 -2.11261 1.3164
head 1.04639 -1.02048 -0.21612
lclavicle 8.04213e-16 -3.96871e-16 -3.14258e-35
lhumerus -53.5922 -5.83502 90.1852
lradius 51.881 -0 0
lwrist 18.0177 0 0
lhand -6.34959 5.51619 0.00242887
lfingers 7.12502 -0 0
lthumb 19.4961 34.5577 0.00214756
rclavicle 8.04213e-16 -3.96871e-16 -3.14258e-35
rhumerus -29.3218 45.0289 -107.69
rradius 66.8871 -0 0
rwrist -2.715 0 0
rhand -6.52149 -22.0439 -0.000518283
rfingers 7.12502 -0 0
rthumb 19.3309 -51.1022 -0.000266594
821
root 2.186 16.5406 23.5666 4.4721 -5.47753 352.293
lfemur -35.1876 -0.497503 3.8962
ltibia 16.9611 0 0
lfoot -7.50492 15.8019 0
ltoes 20.1964 0 0
rfemur 6.83668 6.54766 22.0726
rtibia 18.4231 0 0
rfoot -21.2343 -12.628 0
rtoes -27.1883 0 0
lowerback -0.172572 7.02642 5.93941
upperback -0.381328 9.3651 0.0567512
thorax 0.634559 4.69018 -3.06969
lowerneck -5.43036 -1.39198 3.43192
upperneck 0.538849 -2.10077 1.31002
head 1.04746 -1.01469 -0.219131
lclavicle 7.95139e-16 -3.97569e-16 0
lhumerus -53.5888 -5.82466 90.1773
lradius 51.848 0 0
lwrist 18.0267 0 0
lhand -6.3234 5.53472 0
lfingers 7.12502 0 0
lthumb 19.5214 34.5747 0
rclavicle 7.95139e-16 -3.97569e-16 0
rhumerus -29.3198 45.0234 -107.682
rradius 66.8638 0 0
rwrist -2.73019 0 0
rhand -6.49092 -22.0473 0
rfingers 7.12502 0 0
rthumb 19.3604 -771.104 0
